<?xml version="1.0" standalone="no"?><!DOCTYPE svg PUBLIC "-//W3C//DTD SVG 1.1//EN" "http://www.w3.org/Graphics/SVG/1.1/DTD/svg11.dtd"><svg t="1514106605126" class="icon" style="" viewBox="0 0 1024 1024" version="1.1" xmlns="http://www.w3.org/2000/svg" p-id="10424" xmlns:xlink="http://www.w3.org/1999/xlink" width="200" height="200"><defs><style type="text/css"></style></defs><path d="M779.502933 481.962667a209.169067 209.169067 0 0 1 147.933867 61.098666c19.114667 19.0464 34.2016 41.301333 45.329067 66.7648 11.127467 25.463467 16.725333 52.497067 16.725333 81.1008 0 28.672-5.597867 55.7056-16.725333 81.169067a215.8592 215.8592 0 0 1-45.329067 66.7648c-19.114667 19.114667-41.301333 34.2016-66.7648 45.329067a200.157867 200.157867 0 0 1-81.169067 16.725333c-29.218133 0-56.593067-5.597867-82.056533-16.725333a215.8592 215.8592 0 0 1-66.7648-45.329067 209.169067 209.169067 0 0 1 148.821333-356.898133z m104.0384 241.4592a36.181333 36.181333 0 0 0 24.3712-8.6016 28.672 28.672 0 0 0 10.0352-22.9376 33.109333 33.109333 0 0 0-10.0352-24.302934 33.109333 33.109333 0 0 0-24.3712-10.0352h-206.165333a33.109333 33.109333 0 0 0-24.302933 10.0352 33.109333 33.109333 0 0 0-10.0352 24.302934c0 9.557333 3.413333 17.2032 10.0352 22.9376a36.181333 36.181333 0 0 0 24.3712 8.6016h206.165333z m-381.7472 54.340266c2.594133 12.765867 6.690133 26.146133 12.424534 40.1408 5.7344 13.994667 14.1312 28.125867 25.258666 42.461867 11.195733 14.336 25.1904 28.4672 42.052267 42.461867 16.861867 13.994667 38.2976 27.0336 64.375467 39.1168a571.1872 571.1872 0 0 1-60.074667 9.557333c-19.797333 2.525867-43.6224 4.573867-71.611733 6.144-27.989333 1.6384-60.074667 2.4576-96.392534 2.4576-18.432 0-39.7312-0.682667-63.8976-1.911467a2322.568533 2322.568533 0 0 1-152.712533-13.380266 2720.904533 2720.904533 0 0 1-69.632-9.557334 872.0384 872.0384 0 0 1-53.521067-9.557333c-14.609067-3.140267-23.893333-6.3488-27.648-9.557333-6.3488-5.051733-11.264-20.616533-14.813866-46.6944-3.4816-26.146133-2.048-59.869867 4.3008-101.1712 3.822933-23.552 13.380267-41.506133 28.672-53.930667 15.223467-12.424533 33.245867-22.254933 53.930666-29.627733 20.616533-7.304533 41.984-13.789867 63.8976-19.524267 21.981867-5.7344 41.506133-13.994667 58.709334-24.849067a148.138667 148.138667 0 0 0 30.993066-24.302933c7.304533-7.9872 12.424533-15.701333 15.291734-23.415467a67.3792 67.3792 0 0 0 4.3008-23.893333c0-8.192-0.341333-17.408-0.955734-27.648a52.8384 52.8384 0 0 0-15.291733-34.816c-8.874667-8.6016-18.432-17.339733-28.672-26.2144a63.010133 63.010133 0 0 1-13.789867-18.6368 237.568 237.568 0 0 1-10.922666-24.302933 898.389333 898.389333 0 0 1-9.557334-30.583467 43.8272 43.8272 0 0 1-13.380266-6.690133 73.045333 73.045333 0 0 1-11.946667-13.312 83.080533 83.080533 0 0 1-10.922667-24.849067 67.584 67.584 0 0 1-4.369066-29.559467c0.955733-8.874667 2.730667-16.861867 5.256533-23.893333a61.44 61.44 0 0 1 12.424533-20.002133c0-24.1664 1.297067-48.3328 3.822934-72.567467 2.525867-20.343467 6.9632-42.325333 13.380266-65.809067 6.3488-23.552 16.1792-44.578133 29.559467-63.010133 12.0832-17.749333 25.6-32.426667 40.5504-43.895467 15.018667-11.4688 30.037333-20.343467 45.329067-26.692266a189.781333 189.781333 0 0 1 46.2848-12.970667C388.061867 1.160533 403.217067 0 417.826133 0c18.432 0 36.2496 2.2528 53.4528 6.690133s33.109333 10.171733 47.7184 17.134934c14.609067 7.031467 27.648 15.018667 39.1168 23.893333 11.4688 8.874667 20.6848 17.749333 27.716267 26.692267 16.520533 20.411733 28.603733 42.8032 36.181333 67.310933a450.56 450.56 0 0 1 16.247467 70.109867c3.208533 25.463467 4.778667 51.2 4.778667 77.346133a33.245867 33.245867 0 0 1 10.513066 12.424533c2.525867 4.437333 4.642133 10.171733 6.212267 17.134934 1.570133 7.031467 1.774933 15.906133 0.477867 26.760533a88.200533 88.200533 0 0 1-8.123734 31.9488 63.010133 63.010133 0 0 1-13.858133 18.6368 48.128 48.128 0 0 1-18.090667 10.4448 898.389333 898.389333 0 0 1-9.557333 30.583467c-3.208533 8.192-6.826667 16.384-10.922667 24.302933a63.010133 63.010133 0 0 1-13.858133 18.6368 71.68 71.68 0 0 0-21.026133 30.5152l-6.144 16.725333c-2.2528 6.007467-5.597867 12.288-10.103467 18.568534-29.9008 45.806933-47.240533 87.176533-52.0192 124.1088-4.778667 36.864-3.003733 72.840533 5.256533 107.861333z" p-id="10425"></path></svg>