<?xml version="1.0" standalone="no"?><!DOCTYPE svg PUBLIC "-//W3C//DTD SVG 1.1//EN" "http://www.w3.org/Graphics/SVG/1.1/DTD/svg11.dtd"><svg t="1514958423463" class="icon" style="" viewBox="0 0 1024 1024" version="1.1" xmlns="http://www.w3.org/2000/svg" p-id="7891" xmlns:xlink="http://www.w3.org/1999/xlink" width="200" height="200"><defs><style type="text/css"></style></defs><path d="M512 0c283.30625 0 512 228.69375 512 512S795.30625 1024 512 1024 0 795.30625 0 512 228.69375 0 512 0z" fill="#FFFFFF" p-id="7892"></path><path d="M767.8675 346.05875l11.35125 532.595-230.8125-65.86-13.245-91.8775 232.70625-374.8575z m-497.57125 0l-18.92 490.6225 240.2725-23.8875-9.46-93.715-211.8925-373.02z" fill="#302B28" p-id="7893"></path><path d="M413.01375 723.62625H614.4v105.19125S563.2 845 515.41375 845c-51.2 0-98.9875-16.1825-98.9875-16.1825v-105.19125h-3.4125z" fill="#EED0AE" p-id="7894"></path><path d="M269.65375 341.33375S292.93875 491.21875 302.5 581.25c3.75 35.3125 38.04625 82.48 45.83375 90.7125 41.1825 43.53125 58.0875 62.29375 78.3325 72.14375 27.45375 13.3575 47.7875 20.48 85.33375 23.89375 40.96 0 53.0125-3.32 81.92-20.48 27.40875-16.27 53.98375-35.9025 84.60875-75.5575 8.89625-11.52 31.055-30.7125 43.55875-67.19625 29.62375-86.43 28.84625-249.78 28.84625-249.78L672.42625 256l-402.7725 85.33375z" fill="#F4DBB9" p-id="7895"></path><path d="M515.41375 1024l-119.4675-197.97375h235.52L515.41375 1024z" fill="#ECF1F1" p-id="7896"></path><path d="M744.10625 829.44c-51.2-27.30625-116.0525-23.89375-116.0525-23.89375L515.41375 1024c116.0525 0 218.4525-37.54625 303.78625-102.4-6.82625-23.89375-23.89375-68.26625-75.09375-92.16zM515.41375 1024l-122.88-218.45375s-64.85375-3.4125-116.05375 23.89375c-37.54625 23.89375-64.85375 75.09375-71.68 92.16 85.33375 61.44 194.56 102.4 310.61375 102.4z" fill="#F49B6E" p-id="7897"></path><path d="M610.98625 786.97375l-98.98625 51.2 51.2 64.8525 88.74625-78.50625-40.96-37.54625z m-201.38625 0l102.4 51.2-54.61375 64.8525-88.74625-78.50625 40.96-37.54625z" fill="#FFFFFF" p-id="7898"></path><path d="M515.41375 683.4825c-13.65375 0-34.13375 0-47.7875-13.65375-3.4125-3.41375-3.4125-6.82625 0-6.82625 3.41375-3.41375 6.8275-3.41375 6.8275 0 10.24 10.24 23.8925 13.6525 40.96 13.6525 20.48 0 34.1325-3.4125 40.96-13.6525 0 0 3.4125-3.41375 6.82625 0 3.41375 0 3.41375 3.4125 3.41375 3.4125v3.41375c-17.0675 10.24-37.5475 13.65375-51.2 13.65375z" fill="#FF7171" p-id="7899"></path><path d="M444.74875 515.65125c0 19.32-14.16875 34.7775-31.5575 34.7775-17.3875 0-31.55625-15.4575-31.55625-34.7775 0-19.32125 14.16875-34.7775 31.55625-34.7775 16.745 0 31.5575 15.45625 31.5575 34.7775z" fill="#302B28" p-id="7900"></path><path d="M408.04 500.19375c0 5.1525-4.50875 9.66125-9.66125 9.66125-5.15125 0-9.66-4.50875-9.66-9.66125 0-5.15125 4.50875-9.66 9.66-9.66 5.79625 0 9.66125 4.50875 9.66125 9.66z" fill="#FFFFFF" p-id="7901"></path><path d="M654.5525 515.65125c0 19.32-14.16875 34.7775-31.55625 34.7775-17.38875 0-31.5575-15.4575-31.5575-34.7775 0-19.32125 14.16875-34.7775 31.5575-34.7775 17.3875 0 31.55625 15.45625 31.55625 34.7775z" fill="#302B28" p-id="7902"></path><path d="M618.4875 500.19375c0 5.1525-4.50875 9.66125-9.66 9.66125-5.1525 0-9.66125-4.50875-9.66125-9.66125 0-5.15125 4.50875-9.66 9.66125-9.66 5.15125 0 9.66 4.50875 9.66 9.66z" fill="#FFFFFF" p-id="7903"></path><path d="M691.87375 476.75875c-16.875 0.8675-61.15-39.535-116.53625-10.55375-10.30375 5.1525-16.1-24.2375 43.15-24.2375 30.6775 0 53.79375 13.045 64.01125 21.66625l9.375 13.125zM342.49625 476.75875c16.875 0.8675 61.15-39.535 116.53625-10.55375 10.30375 5.1525 16.1-24.2375-43.15-24.2375-30.6775 0-53.79375 13.045-64.01125 21.66625l-9.375 13.125z" fill="#302B28" p-id="7904"></path><path d="M502.005 155.28c-202.1025 0-241.5225 159.47625-241.5225 210.3125 0 78.74625-7.85625 188.17625-7.85625 188.17625s20.42875-75.02375 21.59875-70.105c3.11375 13.0475 3.4225 44.43125 3.93 44.27625 3.34375-1.0325 33.38 14.75875 33.38 14.75875l-1.9625-119.91625s58.88125 2.03375 108-20.295c41.55625-18.89 47.12625-92.24 47.12625-92.24s25.35875 84.63375 84.435 97.77625c59.075 13.145 155.54-13.52375 164.94375 25.8275 13.27375 55.55125 5.6925 80.42375 2.10125 116.42125-0.0575 0.56875 25.38625-13.11 25.38625-13.11s4.32-33.05875 5.8925-44.275c2.79125-19.9 13.7275 50.3975 13.745 49.81 0.535-15.855 15.70875-88.6175 15.70875-169.72625-0.00125-105.215-97.525-217.69125-274.90625-217.69125z" fill="#302B28" p-id="7905"></path><path d="M292.97125 471.04s0-10.24-17.06625-10.24c-20.48 0-30.72 20.48-34.13375 23.89375-3.41375 10.24-10.24 47.78625 17.06625 75.0925 17.0675 13.65375 44.37375 10.24 44.37375 10.24l-10.24-98.98625z m447.14625 3.41375s0-10.24 17.0675-10.24c20.48 0 34.1325 20.48 34.1325 23.8925 3.41375 10.24 10.24 47.7875-17.06625 75.09375-17.06625 13.65375-47.78625 10.24-47.78625 10.24l13.6525-98.98625z" fill="#F4DBB9" p-id="7906"></path></svg>