<?xml version="1.0" standalone="no"?><!DOCTYPE svg PUBLIC "-//W3C//DTD SVG 1.1//EN" "http://www.w3.org/Graphics/SVG/1.1/DTD/svg11.dtd"><svg t="1514958372567" class="icon" style="" viewBox="0 0 1024 1024" version="1.1" xmlns="http://www.w3.org/2000/svg" p-id="2604" xmlns:xlink="http://www.w3.org/1999/xlink" width="200" height="200"><defs><style type="text/css"></style></defs><path d="M512 0c283.30625 0 512 228.69375 512 512S795.30625 1024 512 1024 0 795.30625 0 512 228.69375 0 512 0z" fill="#FFFFFF" p-id="2605"></path><path d="M413.01375 723.62625H614.4v88.7475s-51.2 13.6525-98.98625 13.6525c-51.2 0-98.9875-13.6525-98.9875-13.6525v-88.7475h-3.4125z" fill="#EED0AE" p-id="2606"></path><path d="M286.72 471.04s0-10.24-17.06625-10.24c-20.48 0-30.72 20.48-34.13375 23.89375-3.41375 10.24-10.24 47.78625 17.06625 75.0925 17.0675 13.65375 44.37375 10.24 44.37375 10.24l-10.24-98.98625z m447.14625 3.41375s0-10.24 17.0675-10.24c20.48 0 34.1325 20.48 34.1325 23.8925 3.41375 10.24 10.24 47.7875-17.06625 75.09375-17.06625 13.65375-47.78625 10.24-47.78625 10.24l13.6525-98.98625z" fill="#F4DBB9" p-id="2607"></path><path d="M269.65375 341.33375s20.48 249.1725 37.54625 296.96c23.89375 64.8525 78.50625 85.3325 119.46625 105.8125 27.3075 13.65375 47.7875 20.48 85.33375 23.89375 40.96 0 51.2-6.82625 81.92-20.48 54.61375-20.48 92.16-44.37375 116.05375-92.16 20.48-40.96 40.96-300.37375 40.96-300.37375L672.42625 256l-402.7725 85.33375z" fill="#F4DBB9" p-id="2608"></path><path d="M515.41375 1024l-119.4675-197.97375h235.52L515.41375 1024z" fill="#ECF1F1" p-id="2609"></path><path d="M515.41375 822.61375l27.30625 37.54625-13.65375 23.89375 10.24 119.46625-23.8925 20.48-27.3075-20.48 10.24-119.46625-13.6525-23.89375 30.72-37.54625z" fill="#EE6464" p-id="2610"></path><path d="M474.45375 133.12c-187.73375 17.06625-208.21375 160.42625-211.6275 191.14625-3.4125 27.3075 6.8275 136.53375 6.8275 136.53375s10.24 6.82625 10.24 10.24c3.4125 13.65375 3.4125 44.37375 3.4125 44.37375h10.24s-3.4125-116.05375 3.41375-139.9475c6.82625-23.8925 54.61375-47.78625 54.61375-47.78625s0 10.24-3.41375 20.48-13.65375 23.89375-13.65375 23.89375 23.89375 0 44.37375-6.8275c27.30625-6.82625 54.61375-20.48 54.61375-20.48s0 6.8275-3.41375 13.65375-10.24 13.65375-10.24 13.65375 88.74625-6.8275 153.6-27.3075c51.2-17.06625 85.33375-51.2 85.33375-51.2s44.3725 17.0675 58.02625 88.7475c13.65375 58.02625 6.82625 109.22625 6.82625 146.7725h10.24s0-34.1325 3.41375-44.3725c3.41375-20.48 23.89375-17.0675 23.89375-20.48 0-17.0675 17.06625-109.2275 0-177.49375-13.65375-54.61375-61.44-105.81375-88.7475-119.46625-30.72-13.65375-85.3325-44.37375-197.9725-34.13375z m269.6525 696.32c-51.2-27.30625-116.0525-23.89375-116.0525-23.89375L515.41375 1024c116.0525 0 218.4525-37.54625 303.78625-102.4-6.82625-23.89375-23.89375-68.26625-75.09375-92.16zM515.41375 1024l-122.88-218.45375s-64.85375-3.4125-116.05375 23.89375c-37.54625 23.89375-64.85375 75.09375-71.68 92.16 85.33375 61.44 194.56 102.4 310.61375 102.4z" fill="#302B28" p-id="2611"></path><path d="M614.4 771.41375l-98.98625 51.2 51.2 64.8525 88.74625-78.50625-40.96-37.54625z m-201.38625 0l102.4 51.2-54.61375 64.8525-88.74625-78.50625 40.96-37.54625z" fill="#FFFFFF" p-id="2612"></path><path d="M515.41375 683.4825c-13.65375 0-34.13375 0-47.7875-13.65375-3.4125-3.41375-3.4125-6.82625 0-6.82625 3.41375-3.41375 6.8275-3.41375 6.8275 0 10.24 10.24 23.8925 13.6525 40.96 13.6525 20.48 0 34.1325-3.4125 40.96-13.6525 0 0 3.4125-3.41375 6.82625 0 3.41375 0 3.41375 3.4125 3.41375 3.4125v3.41375c-17.0675 10.24-37.5475 13.65375-51.2 13.65375z" fill="#E1C5A2" p-id="2613"></path><path d="M432.2475 515.65125c0 19.32-14.16875 34.7775-31.5575 34.7775-17.3875 0-31.55625-15.4575-31.55625-34.7775 0-19.32125 14.16875-34.7775 31.55625-34.7775 16.745 0 31.5575 15.45625 31.5575 34.7775z" fill="#302B28" p-id="2614"></path><path d="M395.53875 500.19375c0 5.1525-4.50875 9.66125-9.66125 9.66125-5.15125 0-9.66-4.50875-9.66-9.66125 0-5.15125 4.50875-9.66 9.66-9.66 5.79625 0 9.66125 4.50875 9.66125 9.66z" fill="#FFFFFF" p-id="2615"></path><path d="M349.16875 429.35125c14.8125 7.72875 39.285-25.76125 94.67125 3.22 10.305 5.1525 16.10125-45.08125-43.15-45.08125-51.52125 0-60.5375 37.35375-51.52125 41.86125zM667.05375 515.65125c0 19.32-14.16875 34.7775-31.55625 34.7775-17.38875 0-31.5575-15.4575-31.5575-34.7775 0-19.32125 14.16875-34.7775 31.5575-34.7775 17.3875 0 31.55625 15.45625 31.55625 34.7775z" fill="#302B28" p-id="2616"></path><path d="M630.98875 500.19375c0 5.1525-4.50875 9.66125-9.66 9.66125-5.1525 0-9.66125-4.50875-9.66125-9.66125 0-5.15125 4.50875-9.66 9.66125-9.66 5.15125 0 9.66 4.50875 9.66 9.66z" fill="#FFFFFF" p-id="2617"></path><path d="M682.51125 429.35125c-14.8125 7.72875-39.28625-25.76125-94.6725 3.22-10.30375 5.1525-16.1-45.08125 43.15-45.08125 51.5225 0 60.53875 37.35375 51.5225 41.86125z" fill="#302B28" p-id="2618"></path></svg>