<?xml version="1.0" standalone="no"?><!DOCTYPE svg PUBLIC "-//W3C//DTD SVG 1.1//EN" "http://www.w3.org/Graphics/SVG/1.1/DTD/svg11.dtd"><svg t="1513967633498" class="icon" style="" viewBox="0 0 1920 1024" version="1.1" xmlns="http://www.w3.org/2000/svg" p-id="4237" xmlns:xlink="http://www.w3.org/1999/xlink" width="375" height="200"><defs><style type="text/css"></style></defs><path d="M6.4 1024h1913.6l-256-281.6 256-294.4h-1920l265.6 294.4z" fill="#EE5951" p-id="4238"></path><path d="M704 457.6l-99.2 54.4 19.2-115.2-80-83.2 112-16 48-105.6 48 105.6 112 16-80 83.2 19.2 115.2zM1248 457.6l-99.2 54.4 19.2-115.2-80-83.2 112-16 48-105.6 48 105.6 112 16-80 83.2 19.2 115.2z" fill="#FFCD30" p-id="4239"></path><path d="M976 396.8l-169.6 83.2 32-172.8-134.4-124.8 188.8-25.6 83.2-156.8 83.2 156.8 188.8 25.6-134.4 124.8 32 172.8z" fill="#FFCD30" p-id="4240"></path><path d="M396.8 547.2v54.4h137.6v358.4h60.8v-358.4h137.6V547.2h-336z m569.6-6.4c60.8 0 112 19.2 147.2 60.8 35.2 38.4 51.2 89.6 51.2 153.6s-16 112-51.2 153.6c-35.2 41.6-86.4 60.8-147.2 60.8-64 0-112-19.2-147.2-60.8-35.2-38.4-51.2-89.6-51.2-153.6s16-112 51.2-153.6c35.2-41.6 83.2-60.8 147.2-60.8z m0 54.4c-44.8 0-76.8 12.8-102.4 44.8-22.4 28.8-35.2 67.2-35.2 115.2s12.8 86.4 35.2 115.2c25.6 28.8 57.6 44.8 102.4 44.8 44.8 0 76.8-16 102.4-41.6 22.4-28.8 35.2-67.2 35.2-115.2s-12.8-89.6-35.2-115.2c-25.6-35.2-60.8-48-102.4-48z m262.4-48h169.6c99.2 0 147.2 41.6 147.2 124.8 0 83.2-48 124.8-147.2 124.8h-105.6v160h-64V547.2z m64 54.4v144h102.4c32 0 54.4-6.4 67.2-16 12.8-12.8 22.4-28.8 22.4-54.4s-6.4-44.8-22.4-54.4c-16-12.8-38.4-16-67.2-16h-102.4z" fill="#FFFFFF" p-id="4241"></path></svg>